<svg width="193" height="151" viewBox="0 0 193 151" fill="none" xmlns="http://www.w3.org/2000/svg">
<path d="M118.705 65.1825L32.6147 22.2221C30.5288 21.1812 27.9941 22.0284 26.9532 24.1142L2.40757 73.3021C1.36668 75.388 2.21382 77.9228 4.29971 78.9637L90.3896 121.924C92.4755 122.965 95.0102 122.118 96.0511 120.032L120.597 70.844C121.638 68.7581 120.79 66.2234 118.705 65.1825Z" fill="#4E3BF6"/>
<path d="M74.2523 9.23375L55.128 47.5576C54.2585 49.3 54.9662 51.4172 56.7085 52.2867L95.0324 71.411C96.7747 72.2804 98.892 71.5728 99.7614 69.8305L118.886 31.5066C119.755 29.7643 119.048 27.647 117.305 26.7775L78.9814 7.65326C77.239 6.7838 75.1217 7.49141 74.2523 9.23375Z" fill="#75BEFF"/>
<path d="M88.3318 92.9654L70.9149 127.868C70.223 129.254 70.7861 130.939 72.1726 131.631L107.075 149.048C108.462 149.74 110.146 149.177 110.838 147.79L128.255 112.888C128.947 111.501 128.384 109.817 126.998 109.125L92.0951 91.7077C90.7086 91.0158 89.0237 91.5789 88.3318 92.9654Z" fill="#F03B5E"/>
<path d="M190.634 17.2617L157.931 0.942359C156.888 0.42191 155.621 0.845475 155.101 1.88842L138.781 34.5915C138.261 35.6344 138.684 36.9018 139.727 37.4222L172.43 53.7416C173.473 54.2621 174.741 53.8385 175.261 52.7956L191.58 20.0925C192.101 19.0496 191.677 17.7822 190.634 17.2617Z" fill="#FCB84B"/>
</svg>
