<svg width="20" height="20" viewBox="0 0 20 20" fill="none" xmlns="http://www.w3.org/2000/svg">
<path d="M16.666 3.95499C15.4052 3.37496 14.073 2.96445 12.7044 2.73416C12.5294 3.03416 12.3369 3.44083 12.2002 3.75916C10.7451 3.54754 9.267 3.54754 7.81187 3.75916C7.65955 3.40998 7.49132 3.06795 7.30771 2.73416C5.93827 2.96117 4.60571 3.37182 3.34604 3.95499C0.836039 7.65666 0.157705 11.2692 0.497705 14.8342C2.16437 16.045 3.77271 16.7808 5.35104 17.2658C5.73854 16.7408 6.08687 16.1783 6.38604 15.5892C5.81859 15.3755 5.27071 15.1132 4.74854 14.805C4.88521 14.7067 5.02187 14.6 5.14604 14.4958C8.30687 15.9375 11.7244 15.9375 14.8427 14.4958C14.9802 14.6 15.1069 14.7067 15.2435 14.8042C14.7194 15.1142 14.176 15.3742 13.606 15.5892C13.906 16.1783 14.2535 16.7417 14.641 17.2658C16.3853 16.7365 18.0268 15.9142 19.4952 14.8342C19.9119 10.7067 18.8369 7.12249 16.666 3.95499ZM6.8227 12.6333C5.87521 12.6333 5.1002 11.7708 5.1002 10.7167C5.1002 9.66166 5.85521 8.79916 6.82187 8.79916C7.78271 8.79916 8.56687 9.66166 8.54687 10.7158C8.54687 11.7708 7.78354 12.6333 6.8227 12.6333ZM13.1885 12.6333C12.2385 12.6333 11.4635 11.7708 11.4635 10.7167C11.4635 9.66166 12.2185 8.79916 13.1885 8.79916C14.146 8.79916 14.9302 9.66166 14.911 10.7158C14.911 11.7708 14.1552 12.6333 13.1885 12.6333Z" fill="currentColor"/>
</svg>
