<svg width="20" height="20" viewBox="0 0 20 20" fill="none" xmlns="http://www.w3.org/2000/svg">
<path d="M9.99167 1.48999C5.16333 1.48832 1.25 5.39832 1.25 10.225C1.25 14.0417 3.6975 17.2858 7.10583 18.4775C7.56417 18.5925 7.49417 18.2667 7.49417 18.0442V16.53C4.84417 16.8408 4.73583 15.0867 4.55833 14.7933C4.2 14.18 3.35 14.0242 3.60333 13.7308C4.20667 13.4208 4.8225 13.8092 5.535 14.8617C6.05083 15.6258 7.05667 15.4967 7.56667 15.37C7.6775 14.9108 7.91667 14.5008 8.24417 14.1825C5.49833 13.6908 4.35333 12.0142 4.35333 10.0225C4.35333 9.05582 4.67167 8.16666 5.29667 7.44999C4.89833 6.26832 5.33417 5.25666 5.3925 5.10582C6.5275 5.00416 7.70667 5.91832 7.79917 5.99082C8.44333 5.81666 9.18 5.72499 10.0042 5.72499C10.8317 5.72499 11.5708 5.82082 12.2208 5.99666C12.4417 5.82916 13.535 5.04332 14.59 5.13916C14.6467 5.28916 15.0725 6.27832 14.6975 7.44416C15.3308 8.16249 15.6525 9.05916 15.6525 10.0275C15.6525 12.0242 14.5 13.7025 11.7458 14.1858C12.205 14.6392 12.49 15.2683 12.49 15.9633V18.1608C12.5058 18.3358 12.49 18.5108 12.7833 18.5108C16.2417 17.3442 18.7325 14.0775 18.7325 10.2275C18.7325 5.39916 14.8183 1.49082 9.9925 1.49082" fill="currentColor"/>
</svg>
